<svg xmlns="http://www.w3.org/2000/svg" viewBox="0 -10.5 690 388.125" preserveAspectRatio="xMidYMid slice" role="img" aria-label="UCASAL: Expectativa vs Realidad">
<title>UCASAL: Expectativa vs Realidad</title>
<desc>Encuesta anonima para alumnos de UCASAL - proyecto personal</desc>

<defs>
  <linearGradient id="brandGrad" x1="0" x2="1" y1="0" y2="0">
    <stop offset="0" stop-color="#e11d48"/>
    <stop offset="1" stop-color="#14b8a6"/>
  </linearGradient>
  <linearGradient id="brandGradRev" x1="0" x2="1" y1="0" y2="0">
    <stop offset="0" stop-color="#14b8a6"/>
    <stop offset="1" stop-color="#e11d48"/>
  </linearGradient>
</defs>

<rect x="0" y="-10.5" width="690" height="388.125" fill="#18181b"/>
<rect x="0" y="-10.5" width="690" height="3" fill="url(#brandGrad)"/>

<!-- LADO IZQUIERDO: REFERENCIAS UNIVERSITARIAS -->
<g opacity="0.16" stroke="#a1a1aa" fill="none" stroke-width="1.5" stroke-linecap="round" stroke-linejoin="round">

  <g transform="translate(80, 80)">
    <polygon points="-32,0 0,-13 32,0 0,13"/>
    <path d="M -19,6 L -19,19 Q -19,25 0,25 Q 19,25 19,19 L 19,6"/>
    <line x1="0" y1="0" x2="0" y2="20" stroke-dasharray="2,3"/>
    <circle cx="0" cy="22" r="2.5" fill="#a1a1aa"/>
  </g>

  <g transform="translate(70, 185)">
    <rect x="-30" y="0" width="60" height="11" rx="1.5"/>
    <rect x="-27" y="11" width="54" height="11" rx="1.5"/>
    <rect x="-32" y="22" width="64" height="11" rx="1.5"/>
    <line x1="-23" y1="5.5" x2="-9" y2="5.5" opacity="0.6"/>
    <line x1="-20" y1="16.5" x2="-6" y2="16.5" opacity="0.6"/>
    <line x1="-26" y1="27.5" x2="-9" y2="27.5" opacity="0.6"/>
  </g>

  <g transform="translate(85, 295)">
    <polygon points="-40,-9 0,-29 40,-9"/>
    <line x1="-40" y1="-9" x2="40" y2="-9"/>
    <line x1="-40" y1="-3" x2="40" y2="-3"/>
    <line x1="-32" y1="0" x2="-32" y2="32"/>
    <line x1="-16" y1="0" x2="-16" y2="32"/>
    <line x1="0"   y1="0" x2="0"   y2="32"/>
    <line x1="16"  y1="0" x2="16"  y2="32"/>
    <line x1="32"  y1="0" x2="32"  y2="32"/>
    <line x1="-42" y1="32" x2="42" y2="32" stroke-width="2"/>
  </g>

</g>

<!-- LADO DERECHO: REFERENCIAS ANALISIS DE DATOS -->
<g opacity="0.16" stroke="#a1a1aa" fill="none" stroke-width="1.5" stroke-linecap="round" stroke-linejoin="round">

  <g transform="translate(580, 60)">
    <line x1="0" y1="0" x2="0" y2="60"/>
    <line x1="0" y1="60" x2="85" y2="60"/>
    <rect x="7"  y="35" width="14" height="25"/>
    <rect x="25" y="18" width="14" height="42"/>
    <rect x="43" y="10" width="14" height="50"/>
    <rect x="61" y="30" width="14" height="30"/>
  </g>

  <g transform="translate(545, 175)">
    <line x1="0" y1="0" x2="0" y2="65"/>
    <line x1="0" y1="65" x2="100" y2="65"/>
    <path d="M 0,63 C 18,63 30,58 42,42 C 53,28 60,15 72,8 C 85,3 92,2 100,2"/>
    <circle cx="0"  cy="63" r="2" fill="#a1a1aa"/>
    <circle cx="25" cy="58" r="2" fill="#a1a1aa"/>
    <circle cx="48" cy="38" r="2" fill="#a1a1aa"/>
    <circle cx="72" cy="9"  r="2" fill="#a1a1aa"/>
    <circle cx="100" cy="2" r="2" fill="#a1a1aa"/>
  </g>

  <g transform="translate(580, 290)">
    <line x1="0" y1="0" x2="0" y2="55"/>
    <line x1="0" y1="55" x2="85" y2="55"/>
    <path d="M 0,49 L 17,49 L 17,38 L 34,38 L 34,30 L 51,30 L 51,16 L 68,16 L 68,8 L 85,8"/>
  </g>

</g>

<!-- CENTRO: LOGO -->
<rect x="305" y="60" width="80" height="78" rx="9" fill="#f6ebd9"/>
<image x="305" y="60" width="80" height="78" preserveAspectRatio="xMidYMid slice" href="/images/ucasal-logo.png"/>

<!-- TITULO en una linea con dos partes -->
<text x="228.4" y="200" text-anchor="end" font-family="Inter, system-ui, sans-serif" font-size="26" font-weight="700" fill="#ffffff">UCASAL:</text>
<text x="237.4" y="200" text-anchor="start" font-family="Inter, system-ui, sans-serif" font-size="26" font-weight="700" fill="url(#brandGrad)">Expectativa vs Realidad</text>

<rect x="320" y="220" width="50" height="2.5" rx="1.25" fill="url(#brandGrad)"/>

<rect x="0" y="364.5" width="690" height="3" fill="url(#brandGradRev)"/>

</svg>
